<svg width="28" height="28" viewBox="0 0 28 28" fill="none" xmlns="http://www.w3.org/2000/svg">
<path d="M6.29956 25.9587C4.75344 25.9587 3.5 24.6724 3.5 23.0843V11.5317C3.5 10.6589 3.88719 9.83201 4.55 9.28732L12.2504 2.9637C12.7424 2.55628 13.3612 2.33334 14 2.33334C14.6388 2.33334 15.2576 2.55628 15.7496 2.9637L23.4487 9.28732C24.1128 9.83201 24.5 10.6589 24.5 11.5317V23.0843C24.5 24.6724 23.2466 25.9587 21.7004 25.9587H6.29956Z" stroke="#9B9B9B" stroke-width="2" stroke-linecap="round" stroke-linejoin="round"/>
<path d="M10.7188 25.9587V18.7399C10.7188 18.0438 10.9953 17.3761 11.4876 16.8838C11.9799 16.3915 12.6476 16.1149 13.3438 16.1149H14.6562C15.3524 16.1149 16.0201 16.3915 16.5124 16.8838C17.0047 17.3761 17.2812 18.0438 17.2812 18.7399V25.9587" stroke="#9B9B9B" stroke-width="2" stroke-linecap="round" stroke-linejoin="round"/>
</svg>
